# xmcd CD database file
#
# Track frame offsets:
#	150
#	28033
#	42412
#	58701
#	79609
#	90286
#	134571
#	145764
#	205106
#	220359
#	227858
#	238117
#
# Disc length: 3711 seconds
#
# Revision: 0
# Processed by: cddbd v1.5.2PL0 Copyright (c) Steve Scherf et al.
# Submitted via: CDex 1.70beta2
#
DISCID=a70e7d0c
DTITLE=Octurn - - XPs [live] [CD1]
DYEAR=2008
DGENRE=Jazz
TTITLE0=xp27 [part 1]
TTITLE1=xp27 [part 3#1]
TTITLE2=xp27 [part 2#1]
TTITLE3=Flash
TTITLE4=xp23 (Idriz S'amenuise)
TTITLE5=xp26
TTITLE6=Irian (ctp)
TTITLE7=xp23 (#1)
TTITLE8=Stupa1
TTITLE9=Eleonore (ctp)
TTITLE10=xp23 (interlude)
TTITLE11=Eleonore (Homme)
EXTD=YEAR: 2008
EXTT0=
EXTT1=
EXTT2=
EXTT3=
EXTT4=
EXTT5=
EXTT6=
EXTT7=
EXTT8=
EXTT9=
EXTT10=
EXTT11=
PLAYORDER=
